# xmcd CD database file
#
# Track frame offsets:
#	150
#	21825
#	40875
#	54295
#	70960
#	85835
#	104252
#	116030
#	131800
#	146162
#
# Disc length: 2211 seconds
#
# Revision: 0
# Processed by: cddbd v1.4PL0 Copyright (c) Steve Scherf et al.
# Submitted via: NeoAudio 9.9.9
#
DISCID=8d08a10a
DTITLE=Lightnin' Hopkins - Santa Fe Blues
DYEAR=1996
DGENRE=Blues
TTITLE0=Grandma Told Grandma
TTITLE1=Good Times
TTITLE2=Last Affair
TTITLE3=Bad Luck and Trouble
TTITLE4=Mojo Hand
TTITLE5=Shining Moon
TTITLE6=Just Sitting Down Thinking
TTITLE7=Go Down Old Hannah
TTITLE8=Santa Fe Blues
TTITLE9=Guitar Lightnin'
EXTD=YEAR: 1996
EXTT0=
EXTT1=
EXTT2=
EXTT3=
EXTT4=
EXTT5=
EXTT6=
EXTT7=
EXTT8=
EXTT9=
PLAYORDER=
